# xmcd
#
# Track frame offsets: 
#        150
#        5025
#        8856
#        30754
#        46853
#        48940
#        52525
#        61162
#        76917
#        86199
#        97509
#        107242
#        126163
#        132404
#        149545
#        160972
#        174924
#        186517
#        197928
#        217084
#        222174
#        244159
#        276859
#        285020
#        290470
#        328668
#        345746
#        352527
#
# Disc length: 4762 seconds
#
# Revision: 2
# Processed by: cddbd v1.5.2PL0 Copyright (c) Steve Scherf et al.
# Submitted via: ExactAudioCopy v1.0b1
#
DISCID=8b12981c
DTITLE=Rod Blagojevich - G-Rod Sings for the People of Illinois
DYEAR=2009
DGENRE=A Cappella
TTITLE0=Through It All
TTITLE1=Let Me Touch Him
TTITLE2=Country Church
TTITLE3=Big T Water
TTITLE4=Wade In The Water
TTITLE5=Oops, My Hair Is Messy
TTITLE6=Jogging Is In
TTITLE7=Ahoy Ahoy Said The Little Boat Boy
TTITLE8=Golden
TTITLE9=The Age of Innocence
TTITLE10=God Bless The USA
TTITLE11=All My Friends Are Dead
TTITLE12=Yo Down Slow Down Go Down Hoe-Down
TTITLE13=Eek Eek I Lost My Feet
TTITLE14=Patty
TTITLE15=Prairieland, My Fairyland
TTITLE16=Democracy Now And Always
TTITLE17=Cowgirl In The Sand
TTITLE18=Interview from Ravenswood basement
TTITLE19=Are You Lonesome Tonight
TTITLE20=Fever
TTITLE21=Burning Love
TTITLE22=Love Me Tender
TTITLE23=Interview from Thompson Center
TTITLE24=Don't Stop Believing
TTITLE25=I'm A Believer
TTITLE26=Daydream Believer
TTITLE27=Amazing Grace
EXTD=YEAR: 2011
EXTT0=
EXTT1=
EXTT2=
EXTT3=
EXTT4=
EXTT5=
EXTT6=
EXTT7=
EXTT8=
EXTT9=
EXTT10=
EXTT11=
EXTT12=
EXTT13=
EXTT14=
EXTT15=
EXTT16=
EXTT17=
EXTT18=
EXTT19=
EXTT20=
EXTT21=
EXTT22=
EXTT23=
EXTT24=
EXTT25=
EXTT26=
EXTT27=
PLAYORDER=
